<?xml version="1.0" encoding="UTF-8"?>
<svg width="42px" height="22px" viewBox="0 0 42 22" version="1.1" xmlns="http://www.w3.org/2000/svg" xmlns:xlink="http://www.w3.org/1999/xlink">
    <!-- Generator: Sketch 64 (93537) - https://sketch.com -->
    <title>Shape</title>
    <desc>Created with Sketch.</desc>
    <g id="Page-1" stroke="none" stroke-width="1" fill="none" fill-rule="evenodd">
        <text id="Hey!" font-family="Helvetica" font-size="12" font-weight="normal" fill="#B17338">
            <tspan x="8" y="14">Hey!</tspan>
        </text>
        <g id="speech-bubble" transform="translate(0.000000, -0.945526)" fill="#000000" fill-rule="nonzero">
            <path d="M6.11340176,22.9455263 L3.13741149,22.9455263 L5.24179895,21.6936285 C6.37646047,21.0186196 7.08501784,20.1406729 7.27551146,19.1882685 C4.31464234,18.0323396 2.14952375,16.5115529 0.990536898,14.7674907 C-0.167628148,13.0247485 -0.313169218,11.1062996 0.56969228,9.21948182 C1.62899459,6.95548627 4.11354748,4.89193516 7.56552525,3.40889071 C11.316721,1.79736627 15.9865266,0.945526266 21.0701916,0.945526266 C27.4742452,0.945526266 32.872167,2.0400996 36.6801493,4.11083738 C40.110678,5.97638849 42,8.49274849 42,11.1964507 C42,12.5099974 41.5503923,13.7880996 40.6637505,14.995264 C39.746209,16.244424 38.4026455,17.3566952 36.6703698,18.3010818 C32.8572924,20.379984 27.4627399,21.4788596 21.0701094,21.4788596 C18.6969928,21.4788596 16.2206579,21.2903929 14.009765,20.9445529 C11.9170471,22.2216774 9.08125619,22.9455263 6.11340176,22.9455263 Z M21.0701916,2.41219293 C10.8766462,2.41219293 4.62183179,6.02865071 2.94478119,9.61279293 C1.36001891,12.9998152 3.69615443,16.2002285 9.19400738,18.1739707 L9.8083041,18.3945085 L9.78940266,18.8211618 C9.75192851,19.6656685 9.4135106,20.4790818 8.80776061,21.2143707 C10.2828124,20.9174685 11.6212807,20.3792018 12.6694065,19.642544 L13.1905931,19.2762196 L13.9634975,19.413744 C16.1324786,19.7996729 18.6563136,20.0121929 21.0701916,20.0121929 C33.7565078,20.0121929 39.5345951,15.4424018 39.5345951,11.1964507 C39.5345951,8.90962404 37.9301096,6.77767738 35.0166584,5.19338404 C31.6708574,3.37393516 26.8481967,2.41219293 21.0701916,2.41219293 Z" id="Shape"></path>
        </g>
    </g>
</svg>