<svg id="Capa_1" enable-background="new 0 0 512 512" height="512" viewBox="0 0 512 512" width="512" xmlns="http://www.w3.org/2000/svg"><g><path d="m82.839 152.549c-40.888 0-74.035-33.146-74.035-74.035 0-40.888 33.146-74.035 74.035-74.035 40.888 0 74.035 33.146 74.035 74.035 0 40.888-33.147 74.035-74.035 74.035z" fill="#ffe07d"/><path d="m156.875 78.514c0 20.444-8.282 38.947-21.679 52.345s-31.912 21.69-52.355 21.69c-5.249 0-10.375-.551-15.318-1.593 14.307-3.002 27.081-10.14 37.038-20.097 13.398-13.398 21.679-31.901 21.679-52.345s-8.282-38.947-21.679-52.345c-9.957-9.957-22.732-17.095-37.038-20.097 4.942-1.042 10.068-1.593 15.317-1.593 20.444 0 38.958 8.292 52.355 21.69s21.68 31.901 21.68 52.345z" fill="#ffd167"/><path d="m82.839 121.913c-23.969 0-43.4-19.431-43.4-43.4 0-23.969 19.431-43.4 43.4-43.4 23.969 0 43.4 19.431 43.4 43.4 0 23.97-19.431 43.4-43.4 43.4z" fill="#fff3c0"/><path d="m304.71 315.946v104.66c0 42.191 28.595 77.708 67.453 88.22.706.191 1.2.824 1.2 1.555 0 .895-.725 1.62-1.62 1.62h-163.211c-.895 0-1.62-.725-1.62-1.62v-.129c0-.728.489-1.359 1.192-1.553 38.627-10.668 66.992-46.063 66.992-88.093v-104.711c0-18.33-7.046-35.955-19.668-49.251l-175.518-184.668c-6.188-6.505-1.573-17.248 7.403-17.248h405.649c8.976 0 13.592 10.753 7.393 17.258l-175.916 184.648c-12.663 13.295-19.729 30.951-19.729 49.312z" fill="#d3effb"/><path d="m304.71 315.946v104.66c0 42.195 28.593 77.711 67.458 88.219.705.194 1.195.827 1.195 1.552 0 .899-.725 1.624-1.624 1.624h-30.635c.899 0 1.624-.725 1.624-1.624 0-.725-.49-1.358-1.195-1.552-35.833-9.691-62.924-40.632-66.948-78.456v-.041c.337-3.196.511-6.433.511-9.721v-104.712c0-2.849-.174-5.688-.511-8.486v-.041c1.848-15.215 8.547-29.522 19.218-40.734l175.917-184.648c6.198-6.505 1.583-17.258-7.393-17.258h30.635c8.976 0 13.592 10.753 7.393 17.258l-175.916 184.648c-12.663 13.295-19.729 30.951-19.729 49.312z" fill="#b1e4f9"/><path d="m396.221 147.862-82.064 86.345c-2.892 3.043-6.905 4.765-11.103 4.765h-25.837c-4.198 0-8.211-1.723-11.103-4.765l-82.064-86.344c-3.091-3.252-.786-8.623 3.701-8.623h204.768c4.488-.001 6.793 5.37 3.702 8.622z" fill="#aedb81"/><path d="m396.217 147.861-82.061 86.35c-2.89 3.033-6.903 4.759-11.1 4.759h-25.836c-.817 0-1.634-.061-2.43-.194 3.309-.511 6.392-2.104 8.731-4.565l82.061-86.35c3.094-3.247.786-8.619-3.697-8.619h30.635c4.483.001 6.791 5.372 3.697 8.619z" fill="#95cc81"/><path d="m309.199 120.961c-1.598 0-3.208-.498-4.585-1.529-3.386-2.535-4.075-7.336-1.539-10.721l79.12-105.643c2.535-3.387 7.335-4.074 10.721-1.539s4.075 7.336 1.539 10.721l-79.12 105.643c-1.504 2.009-3.806 3.068-6.136 3.068z" fill="#d1b474"/><path d="m355.145 64.728-39.815 53.162c-1.501 2.012-3.799 3.074-6.127 3.074-1.603 0-3.217-.5-4.585-1.532-3.39-2.533-4.074-7.332-1.542-10.722l32.943-43.982z" fill="#b1e4f9"/><path d="m290.136 171.951c-18.329 0-33.188-14.859-33.188-33.188 0-18.329 14.859-33.188 33.188-33.188 18.329 0 33.188 14.859 33.188 33.188 0 18.329-14.858 33.188-33.188 33.188z" fill="#b1e4f9"/><path d="m323.315 139.243c-.123 8.976-3.809 17.084-9.711 22.987-6.004 6.004-14.307 9.722-23.466 9.722-18.167 0-32.933-14.603-33.178-32.708h66.355z" fill="#95cc81"/></g></svg>