<?xml version="1.0" encoding="UTF-8"?>
<svg width="42px" height="22px" viewBox="0 0 42 22" version="1.1" xmlns="http://www.w3.org/2000/svg" xmlns:xlink="http://www.w3.org/1999/xlink">
    <!-- Generator: Sketch 64 (93537) - https://sketch.com -->
    <title>Shape</title>
    <desc>Created with Sketch.</desc>
    <g id="Page-1" stroke="none" stroke-width="1" fill="none" fill-rule="evenodd">
        <g id="speech-bubble" transform="translate(0.000000, -0.945526)" fill="#000000" fill-rule="nonzero">
            <path d="M10.1210938,14.9455263 L10.1210938,10.9201356 L14.5976562,10.9201356 L14.5976562,14.9455263 L15.7753906,14.9455263 L15.7753906,6.33810439 L14.5976562,6.33810439 L14.5976562,9.89474502 L10.1210938,9.89474502 L10.1210938,6.33810439 L8.94335938,6.33810439 L8.94335938,14.9455263 L10.1210938,14.9455263 Z M19.8886719,15.1681825 C20.3691406,15.1681825 20.3691406,15.1681825 20.75,15.0744325 C21.4589844,14.91037 21.4589844,14.91037 21.9394531,14.44162 C22.2265625,14.1720888 22.2265625,14.1720888 22.4580078,13.7472841 C22.6894531,13.3224794 22.6894531,13.3224794 22.7304688,12.9767763 L22.7304688,12.9767763 L21.6933594,12.9767763 C21.5761719,13.3927919 21.5761719,13.3927919 21.2949219,13.7091981 C20.8027344,14.25412 20.8027344,14.25412 19.9765625,14.25412 C19.0917969,14.25412 19.0917969,14.25412 18.6699219,13.6769716 C18.2480469,13.0998231 18.2480469,13.0998231 18.21875,12.144745 L18.21875,12.144745 L22.8183594,12.144745 C22.8183594,11.1955263 22.8183594,11.1955263 22.7246094,10.7619325 C22.6191406,10.12912 22.6191406,10.12912 22.3027344,9.65451064 C21.9746094,9.15646377 21.9746094,9.15646377 21.3476562,8.8429872 C20.7207031,8.52951064 20.7207031,8.52951064 20.0527344,8.52951064 C18.7285156,8.52951064 18.7285156,8.52951064 17.9082031,9.47287002 C17.0878906,10.4162294 17.0878906,10.4162294 17.0878906,11.9279481 C17.0878906,13.4631044 17.0878906,13.4631044 17.9023438,14.3156435 C18.7167969,15.1681825 18.7167969,15.1681825 19.8886719,15.1681825 Z M21.734375,11.3068544 L18.2480469,11.3068544 C18.2773438,10.4982606 18.2773438,10.4982606 18.7695312,9.97384658 C19.2617188,9.44943252 19.2617188,9.44943252 19.9882812,9.44943252 C21.0019531,9.44943252 21.0019531,9.44943252 21.4355469,10.2111513 C21.6699219,10.6213075 21.6699219,10.6213075 21.734375,11.3068544 L21.734375,11.3068544 Z M24.6699219,17.5177919 C25.5839844,17.5177919 25.5839844,17.5177919 25.9589844,16.9904481 C26.3339844,16.4631044 26.3339844,16.4631044 27.2480469,14.0607606 C27.6347656,13.0412294 27.6347656,13.0412294 28.2089844,11.4240419 C28.9765625,9.27365127 28.9765625,9.27365127 29.1992188,8.67013564 L29.1992188,8.67013564 L28.0332031,8.67013564 L26.3398438,13.7795106 L24.6582031,8.67013564 L23.4628906,8.67013564 L25.7832031,15.1271669 C25.7011719,15.3381044 25.7011719,15.3381044 25.5195312,15.7716981 C25.3378906,16.2052919 25.3378906,16.2052919 25.3085938,16.2521669 C25.2148438,16.3927919 25.2148438,16.3927919 25.0771484,16.4894716 C24.9394531,16.5861513 24.9394531,16.5861513 24.6464844,16.5861513 C24.5527344,16.5861513 24.5527344,16.5861513 24.4296875,16.5685731 C24.3066406,16.550995 24.3066406,16.550995 24.03125,16.4748231 L24.03125,16.4748231 L24.03125,17.4357606 C24.2070312,17.4826356 24.2070312,17.4826356 24.3271484,17.5002138 C24.4472656,17.5177919 24.4472656,17.5177919 24.6699219,17.5177919 Z M31.6308594,12.894745 L31.9179688,9.16818252 L31.9179688,6.33810439 L30.7285156,6.33810439 L30.7285156,9.16818252 L31.0332031,12.894745 L31.6308594,12.894745 Z M31.8945312,14.9455263 L31.8945312,13.7267763 L30.7285156,13.7267763 L30.7285156,14.9455263 L31.8945312,14.9455263 Z M6.11340176,22.9455263 L3.13741149,22.9455263 L5.24179895,21.6936285 C6.37646047,21.0186196 7.08501784,20.1406729 7.27551146,19.1882685 C4.31464234,18.0323396 2.14952375,16.5115529 0.990536898,14.7674907 C-0.167628148,13.0247485 -0.313169218,11.1062996 0.56969228,9.21948182 C1.62899459,6.95548627 4.11354748,4.89193516 7.56552525,3.40889071 C11.316721,1.79736627 15.9865266,0.945526266 21.0701916,0.945526266 C27.4742452,0.945526266 32.872167,2.0400996 36.6801493,4.11083738 C40.110678,5.97638849 42,8.49274849 42,11.1964507 C42,12.5099974 41.5503923,13.7880996 40.6637505,14.995264 C39.746209,16.244424 38.4026455,17.3566952 36.6703698,18.3010818 C32.8572924,20.379984 27.4627399,21.4788596 21.0701094,21.4788596 C18.6969928,21.4788596 16.2206579,21.2903929 14.009765,20.9445529 C11.9170471,22.2216774 9.08125619,22.9455263 6.11340176,22.9455263 Z M21.0701916,2.41219293 C10.8766462,2.41219293 4.62183179,6.02865071 2.94478119,9.61279293 C1.36001891,12.9998152 3.69615443,16.2002285 9.19400738,18.1739707 L9.8083041,18.3945085 L9.78940266,18.8211618 C9.75192851,19.6656685 9.4135106,20.4790818 8.80776061,21.2143707 C10.2828124,20.9174685 11.6212807,20.3792018 12.6694065,19.642544 L13.1905931,19.2762196 L13.9634975,19.413744 C16.1324786,19.7996729 18.6563136,20.0121929 21.0701916,20.0121929 C33.7565078,20.0121929 39.5345951,15.4424018 39.5345951,11.1964507 C39.5345951,8.90962404 37.9301096,6.77767738 35.0166584,5.19338404 C31.6708574,3.37393516 26.8481967,2.41219293 21.0701916,2.41219293 Z" id="Shape"></path>
        </g>
    </g>
</svg>