<?xml version="1.0" encoding="UTF-8"?>
<svg width="36px" height="28px" viewBox="0 0 36 28" version="1.1" xmlns="http://www.w3.org/2000/svg" xmlns:xlink="http://www.w3.org/1999/xlink">
    <!-- Generator: Sketch 64 (93537) - https://sketch.com -->
    <title>speech-bubble</title>
    <desc>Created with Sketch.</desc>
    <g id="Page-1" stroke="none" stroke-width="1" fill="none" fill-rule="evenodd">
        <g id="speech-bubble" transform="translate(0.000000, -0.945526)" fill="#000000" fill-rule="nonzero">
            <path d="M5.24005865,28.9455263 L2.68920985,28.9455263 L4.49297053,27.3522018 C5.46553754,26.4930996 6.07287243,25.3757129 6.23615268,24.1635618 C3.69826486,22.6923796 1.84244893,20.7568329 0.849031627,18.5371174 C-0.14368127,16.3190818 -0.268430758,13.8774196 0.488307669,11.4760152 C1.39628108,8.59456627 3.52589784,5.96822849 6.48473593,4.08071738 C9.70004658,2.02968627 13.7027371,0.945526266 18.0601642,0.945526266 C23.549353,0.945526266 28.1761432,2.3386196 31.440128,4.97410404 C34.3805812,7.34844182 36,10.5510818 36,13.9921574 C36,15.663944 35.614622,17.2906196 34.8546433,18.8270107 C34.0681792,20.4168507 32.9165533,21.8324685 31.4317456,23.0344152 C28.1633935,25.6802907 23.5394914,27.0788596 18.0600937,27.0788596 C16.0259938,27.0788596 13.9034211,26.8389929 12.00837,26.3988329 C10.2146118,28.024264 7.78393388,28.9455263 5.24005865,28.9455263 Z M18.0601642,2.81219293 C9.32283963,2.81219293 3.96157011,7.41495738 2.52409816,11.9765929 C1.1657305,16.2873485 3.16813237,20.3606018 7.88057775,22.8726374 L8.4071178,23.1533218 L8.39091657,23.6963352 C8.35879586,24.7711618 8.06872337,25.8064152 7.54950909,26.7422374 C8.81383917,26.3643618 9.96109774,25.6792952 10.8594913,24.7417307 L11.3062227,24.2754996 L11.9687122,24.4505307 C13.8278388,24.9417129 15.9911259,25.2121929 18.0601642,25.2121929 C28.9341495,25.2121929 33.8867958,19.3960952 33.8867958,13.9921574 C33.8867958,11.0816507 32.5115225,8.36826404 30.0142786,6.35189071 C27.1464492,4.03622849 23.01274,2.81219293 18.0601642,2.81219293 Z" id="Shape"></path>
        </g>
    </g>
</svg>