<?xml version="1.0" encoding="iso-8859-1"?>
<!-- Generator: Adobe Illustrator 19.0.0, SVG Export Plug-In . SVG Version: 6.00 Build 0)  -->
<svg version="1.1" id="Capa_1" xmlns="http://www.w3.org/2000/svg" xmlns:xlink="http://www.w3.org/1999/xlink" x="0px" y="0px"
	 viewBox="0 0 512 512" style="enable-background:new 0 0 512 512;" xml:space="preserve">
<path style="fill:#8A8B47;" d="M296.73,120.772c-11.358,3.167-22.921-2.118-28.263-11.847c-11.979-22.06-44.912-27.281-63.053-9.518
	c-8.863,8.466-21.727,8.598-30.387,2.626c-20.297-13.619-51.068-5.134-60.457,19.124c-4.146,10.764-15.224,16.721-26.477,14.62
	c-11.43-2.301-25.232,3.72-31.955,11.365l138.868,138.87c8.894,0.738,17.942,1.303,27.102,1.695l124.998-127.083
	C348.397,135.308,321.618,113.714,296.73,120.772z"/>
<path style="fill:#BD7155;" d="M271.577,156.56c26.553,26.553,68.49,28.342,97.115,5.368c3.367-2.703,3.597-7.756,0.545-10.81
	L277.017,58.9c-3.053-3.053-8.107-2.822-10.81,0.545C243.236,88.071,245.025,130.008,271.577,156.56z"/>
<g>
	<path style="fill:#DFCE4E;" d="M274.022,99.156c-0.5,4.226-0.456,8.506,0.13,12.72c0.595,4.272,4.541,7.254,8.813,6.659
		c1.75-0.244,3.283-1.049,4.442-2.209c1.673-1.673,2.568-4.082,2.217-6.605c-0.402-2.892-0.433-5.829-0.09-8.731
		c0.507-4.285-2.556-8.168-6.839-8.674C278.412,91.809,274.528,94.872,274.022,99.156z"/>
	<path style="fill:#DFCE4E;" d="M302.462,131.82c-1.141-0.881-2.24-1.849-3.268-2.876c-1.035-1.035-2.01-2.143-2.898-3.296
		c-2.633-3.417-7.538-4.052-10.955-1.418c-3.418,2.629-4.052,7.538-1.419,10.955c1.296,1.681,2.717,3.298,4.225,4.806
		c1.497,1.497,3.1,2.907,4.766,4.194c3.144,2.429,7.554,2.086,10.292-0.652c0.234-0.234,0.457-0.487,0.666-0.756
		C306.506,139.361,305.876,134.457,302.462,131.82z"/>
</g>
<path style="fill:#AC3C33;" d="M277.101,151.037c-25.38-25.38-25.38-66.676,0-92.054c-6.376-6.376-16.999-5.208-21.876,2.375
	c-20.092,31.24-16.482,73.415,10.829,100.726s69.485,30.922,100.726,10.829c7.583-4.877,8.751-15.5,2.376-21.876
	C343.776,176.416,302.479,176.416,277.101,151.037z"/>
<path style="fill:#CE9276;" d="M308.399,119.738c8.134,8.134,21.323,8.135,29.457,0l-29.457-29.457
	C300.264,98.416,300.264,111.604,308.399,119.738z"/>
<path style="fill:#C4C65A;" d="M190.897,266.833c-6.576-4.53-9.097-12.962-5.839-20.342c7.323-16.654-3.652-36.085-20.355-39.39
	c-7.206-1.33-13.476-7.763-13.672-16.341c-0.187-17.772-18.976-31.488-35.737-26.498c-7.422,2.171-15.718-0.935-19.752-8.126
	c-8.781-15.813-32.601-18.379-44.433-5.212c-5.625,6.423-14.323,7.14-22.652,5.308c-16.909-3.843-33.948,11.441-26.775,27.77
	c2.065,4.818,5.919,8.701,10.199,11.136c7.566,4.335,13.84,10.464,12.809,19.207c-1.079,9.356,2.052,19.029,8.73,26.017
	c5.889,5.961,10.673,7.422,14.4,8.965c-2.576-1.484-4.871-2.921-6.878-4.291c2.007,1.37,4.302,2.807,6.878,4.291
	c1.5,0.621,2.827,1.258,3.987,2.205c8.674,4.61,20.178,9.586,35.319,14.468c32.529,10.489,72.509,17.546,115.764,20.615
	C201.691,278.5,197.229,271.066,190.897,266.833z"/>
<path style="fill:#BD7155;" d="M189.141,139.796c-40.264,0-72.904,32.64-72.904,72.904c0,14.26,4.11,27.553,11.188,38.79
	c34.257,7.095,73.37,11.166,114.193,11.79c12.639-13.11,20.428-30.931,20.428-50.579
	C262.045,172.436,229.404,139.796,189.141,139.796z"/>
<g>
	<path style="fill:#DFCE4E;" d="M158.557,173.836c-3.342,2.635-6.336,5.692-8.902,9.087c-2.601,3.442-1.918,8.34,1.523,10.941
		c1.41,1.064,3.063,1.58,4.703,1.58c2.365,0,4.702-1.071,6.238-3.103c1.76-2.33,3.816-4.428,6.11-6.236
		c3.388-2.67,3.969-7.583,1.298-10.97C166.856,171.746,161.944,171.166,158.557,173.836z"/>
	<path style="fill:#DFCE4E;" d="M168.199,239.271c-2.291-1.81-4.344-3.91-6.102-6.243c-2.596-3.444-7.494-4.132-10.94-1.535
		c-3.444,2.597-4.132,7.494-1.535,10.94c2.562,3.398,5.554,6.459,8.893,9.096c1.433,1.132,3.141,1.682,4.837,1.682
		c2.308,0,4.593-1.019,6.134-2.97C172.161,246.857,171.585,241.944,168.199,239.271z"/>
	<path style="fill:#DFCE4E;" d="M155.57,217.043c-0.184-1.43-0.277-2.891-0.277-4.344c0-1.464,0.095-2.937,0.282-4.38
		c0.554-4.277-2.465-8.195-6.744-8.749c-4.275-0.558-8.195,2.465-8.749,6.744c-0.273,2.105-0.411,4.253-0.411,6.386
		c0,2.116,0.136,4.248,0.404,6.335c0.506,3.941,3.867,6.816,7.738,6.816c0.331,0,0.668-0.022,1.005-0.065
		C153.097,225.237,156.12,221.323,155.57,217.043z"/>
	<path style="fill:#DFCE4E;" d="M210.082,186.128c2.291,1.81,4.344,3.91,6.102,6.243c1.535,2.037,3.875,3.109,6.244,3.109
		c1.637,0,3.288-0.513,4.696-1.575c3.444-2.597,4.132-7.494,1.535-10.94c-2.562-3.398-5.554-6.459-8.893-9.096
		c-3.385-2.675-8.297-2.099-10.971,1.287C206.121,178.542,206.697,183.453,210.082,186.128z"/>
	<path style="fill:#DFCE4E;" d="M227.103,231.533c-3.443-2.601-8.34-1.918-10.941,1.523c-1.76,2.33-3.816,4.428-6.11,6.236
		c-3.388,2.67-3.969,7.583-1.298,10.97c1.541,1.955,3.828,2.976,6.14,2.976c1.693,0,3.398-0.548,4.831-1.678
		c3.342-2.635,6.336-5.692,8.902-9.087C231.228,239.033,230.545,234.134,227.103,231.533z"/>
	<path style="fill:#DFCE4E;" d="M238.206,206.363c-0.55-4.278-4.468-7.3-8.743-6.752c-4.278,0.55-7.302,4.465-6.752,8.743
		c0.184,1.43,0.277,2.891,0.277,4.344c0,1.464-0.095,2.937-0.282,4.38c-0.554,4.277,2.465,8.195,6.744,8.749
		c0.341,0.044,0.678,0.066,1.013,0.066c3.867,0,7.227-2.871,7.737-6.809c0.273-2.105,0.411-4.253,0.411-6.386
		C238.612,210.583,238.475,208.451,238.206,206.363z"/>
</g>
<g>
	<path style="fill:#CE9276;" d="M196.952,254.358V171.04c0-4.314-3.497-7.811-7.811-7.811c-4.314,0-7.811,3.497-7.811,7.811v83.318
		c0,2.209,0.921,4.199,2.394,5.62c3.214,0.324,6.452,0.623,9.71,0.901C195.553,259.483,196.952,257.085,196.952,254.358z"/>
	<circle style="fill:#CE9276;" cx="189.143" cy="212.701" r="20.83"/>
</g>
<path style="fill:#AC3C33;" d="M189.141,131.985c-44.507,0-80.715,36.208-80.715,80.715c0,13.152,3.182,25.567,8.786,36.55
	c6.918,1.602,14.056,3.077,21.393,4.416c-9.093-11.196-14.556-25.453-14.556-40.966c0-35.891,29.201-65.093,65.093-65.093
	s65.093,29.201,65.093,65.093c0,20.253-9.299,38.371-23.85,50.319c7.121,0.221,14.303,0.336,21.529,0.344
	c11.21-13.862,17.944-31.487,17.944-50.663C269.856,168.193,233.647,131.985,189.141,131.985z"/>
<path style="fill:#C4C65A;" d="M471.137,120.473c-11.958,2.618-24.449,1.591-32.525-7.583
	c-16.989-18.811-51.194-15.145-63.801,7.445c-5.792,10.271-17.705,14.71-28.362,11.607c-24.069-7.128-51.047,12.468-51.316,37.855
	c-0.28,12.254-9.284,21.443-19.631,23.345c-23.983,4.721-39.741,32.481-29.227,56.271c4.679,10.543,1.058,22.589-8.384,29.06
	c-3.718,2.472-6.981,5.714-9.664,9.468c8.076,0.275,16.23,0.419,24.445,0.419c62.037,0,120.828-7.941,165.545-22.36
	c5.988-1.931,16.795-6.083,21.699-8.016c5.568-9.055,9.894-3.022,24.095-17.326c9.588-9.984,14.084-23.803,12.534-37.168
	c-1.481-12.49,7.528-21.247,18.393-27.439c6.147-3.479,11.68-9.024,14.645-15.908C519.882,136.817,495.417,114.982,471.137,120.473z
	"/>
<path style="fill:#AC3C33;" d="M419.087,249.653c-2.452-28.414-26.347-50.792-55.386-50.792c-30.662,0-55.608,24.946-55.608,55.608
	c0,7.397,1.463,14.455,4.097,20.916c31.477-3.765,60.489-9.749,85.198-17.717C405.663,255,412.847,252.303,419.087,249.653z"/>
<path style="fill:#C95A3A;" d="M388.064,223.224c0-0.072,0-0.145,0-0.217c-0.051-13.247-10.9-24.096-24.147-24.147
	c-0.072,0-0.145,0-0.217,0c-30.662,0-55.608,24.946-55.608,55.608c0,0.072,0,0.145,0,0.217c0.032,8.225,4.228,15.523,10.575,19.888
	c17.479-2.286,34.138-5.268,49.656-8.902C380.385,255.463,388.064,240.228,388.064,223.224z"/>
<path style="fill:#915729;" d="M207.068,96.439l-22.093-22.093c-6.076-6.076-16.018-6.076-22.093,0
	c-6.076,6.076-6.076,16.018,0,22.093l22.093,22.093c6.076,6.076,16.018,6.076,22.093,0
	C213.143,112.457,213.143,102.515,207.068,96.439z"/>
<path style="fill:#C98A2E;" d="M184.974,118.532l-22.093-22.093c-4.361-4.361-5.574-10.708-3.674-16.194
	c5.485-1.9,11.833-0.686,16.194,3.674l22.093,22.093c4.361,4.361,5.574,10.708,3.674,16.194
	C195.684,124.106,189.336,122.893,184.974,118.532z"/>
<path style="fill:#915729;" d="M429.723,184.965h-31.244c-8.592,0-15.622-7.03-15.622-15.622c0-8.592,7.03-15.622,15.622-15.622
	h31.244c8.592,0,15.622,7.03,15.622,15.622C445.345,177.935,438.315,184.965,429.723,184.965z"/>
<path style="fill:#C98A2E;" d="M429.723,153.72h-31.244c-6.168,0-11.514,3.631-14.05,8.853c2.536,5.222,7.882,8.853,14.05,8.853
	h31.244c6.168,0,11.514-3.631,14.05-8.853C441.237,157.351,435.89,153.72,429.723,153.72z"/>
<path style="fill:#915729;" d="M105.003,209.96L82.91,232.053c-6.076,6.076-16.018,6.076-22.093,0
	c-6.076-6.076-6.076-16.018,0-22.093l22.093-22.093c6.076-6.076,16.018-6.076,22.093,0
	C111.078,193.943,111.078,203.885,105.003,209.96z"/>
<path style="fill:#C98A2E;" d="M82.91,187.867L60.817,209.96c-4.361,4.361-5.574,10.708-3.674,16.194
	c5.485,1.9,11.833,0.686,16.194-3.674l22.093-22.093c4.361-4.361,5.574-10.708,3.674-16.194
	C93.619,182.293,87.271,183.507,82.91,187.867z"/>
<path style="fill:#535572;" d="M471.912,248.852H252.685L108.946,405.921h0.022c0,0.653,0.011,1.304,0.034,1.953
	c0.985,27.656,24.026,49.275,51.344,49.275h92.339h92.339c27.318,0,50.359-21.618,51.344-49.275c0.023-0.649,0.034-1.3,0.034-1.953
	h0.022c52.805-27.145,91.236-68.83,104.988-117.346C507.051,268.683,492.34,248.852,471.912,248.852z"/>
<path style="fill:#656890;" d="M313.448,358.747L313.448,358.747c33.957-44.986,2.294-109.895-53.607-109.895H33.46
	c-20.353,0-35.144,19.72-29.551,39.545c13.71,48.596,52.185,90.346,105.063,117.524h109.866c36.789,0,71.67-17.066,94.151-46.567
	C313.142,359.152,313.295,358.95,313.448,358.747z"/>
<g>
</g>
<g>
</g>
<g>
</g>
<g>
</g>
<g>
</g>
<g>
</g>
<g>
</g>
<g>
</g>
<g>
</g>
<g>
</g>
<g>
</g>
<g>
</g>
<g>
</g>
<g>
</g>
<g>
</g>
</svg>
